#!OML:ASF I:\golf\golf\golf 2\Subject 1\2002-09-07\Subject1.ASF
:FULLY-SPECIFIED
:DEGREES
527
root 1.33144 17.8805 -7.03975 6.63631 -2.82047 -7.71917
lowerback -6.29597 0.652833 -2.38551
upperback -1.96221 0.941195 4.08862
thorax 1.39475 0.479605 5.6577
lowerneck -25.9059 -4.47866 -2.04566
upperneck 21.8839 -6.32364 3.03128
head 11.5903 -2.609 0.367424
rclavicle 3.10362e-014 -2.97183e-014
rhumerus -28.6448 2.48453 -85.7477
rradius 34.2094
rwrist -12.6991
rhand -19.2266 9.56443
rfingers 7.12502
rthumb 7.08645 -20.2969
lclavicle 3.10362e-014 -2.97183e-014
lhumerus -28.0626 1.32659 88.3208
lradius 33.2199
lwrist 9.71567
lhand -6.27318 31.8096
lfingers 7.12502
lthumb 19.5697 60.8447
rfemur -15.1919 -1.27717 25.3324
rtibia 29.7888
rfoot -15.7083 -6.35403
rtoes 1.13614
lfemur -12.9354 1.84482 -9.40952
ltibia 32.4395
lfoot -19.2186 11.0188
ltoes -11.9543
528
root 1.30413 17.8804 -7.03795 6.6158 -2.68168 -7.82784
lowerback -6.38344 0.586521 -2.33857
upperback -1.94665 0.847101 4.22099
thorax 1.46897 0.430645 5.76599
lowerneck -25.7776 -4.44432 -2.30833
upperneck 21.8458 -6.20559 3.14799
head 11.5627 -2.56541 0.476234
rclavicle -3.42098e-015 2.33696e-014
rhumerus -28.5765 2.87732 -85.8151
rradius 34.3159
rwrist -12.7096
rhand -19.1399 9.78096
rfingers 7.12502
rthumb 7.17008 -20.0776
lclavicle -3.42098e-015 2.33696e-014
lhumerus -27.7627 1.44178 88.6475
lradius 33.0716
lwrist 9.43803
lhand -5.56902 32.3477
lfingers 7.12502
lthumb 20.2466 61.3125
rfemur -15.1638 -1.37501 25.5653
rtibia 29.8285
rfoot -15.7784 -6.3769
rtoes 1.24178
lfemur -12.9109 1.76168 -9.17151
ltibia 32.4058
lfoot -19.1565 10.998
ltoes -11.9553
529
root 1.27718 17.8759 -7.0401 6.53319 -2.55439 -7.95798
lowerback -6.24065 0.533604 -2.27897
upperback -1.97325 0.770822 4.33954
thorax 1.36988 0.395298 5.84844
lowerneck -25.6803 -4.43198 -2.37882
upperneck 21.8823 -6.14876 3.09183
head 11.557 -2.55464 0.47828
rclavicle 1.82104e-015 6.03808e-014
rhumerus -28.6081 3.23683 -85.9083
rradius 34.4532
rwrist -12.6066
rhand -18.9506 9.85781
rfingers 7.12502
rthumb 7.35282 -19.9944
lclavicle 1.82104e-015 6.03808e-014
lhumerus -27.558 1.62799 88.9159
lradius 32.9855
lwrist 9.13718
lhand -5.60093 33.0048
lfingers 7.12502
lthumb 20.2159 61.9728
rfemur -15.0719 -1.32328 25.8281
rtibia 29.8767
rfoot -15.8435 -6.53161
rtoes 1.4039
lfemur -12.864 1.77863 -8.89044
ltibia 32.3615
lfoot -19.0098 10.9833
ltoes -12.6763
530
root 1.25064 17.873 -7.04514 6.49955 -2.36663 -7.97971
lowerback -6.1199 0.490555 -2.30352
upperback -2.00867 0.715137 4.36505
thorax 1.27181 0.37035 5.88291
lowerneck -25.5943 -4.44591 -2.30201
upperneck 21.8742 -6.17938 3.01907
head 11.5333 -2.57313 0.435187
rclavicle 9.24499e-015 -1.1514e-014
rhumerus -28.6388 3.42896 -86.0314
rradius 34.6888
rwrist -12.5423
rhand -18.7246 9.78305
rfingers 7.12502
rthumb 7.57096 -20.0614
lclavicle 9.24499e-015 -1.1514e-014
lhumerus -27.3557 1.75754 89.1116
lradius 32.9595
lwrist 8.81735
lhand -5.45806 33.9342
lfingers 7.12502
lthumb 20.3532 62.8876
rfemur -15.0596 -1.30334 25.9685
rtibia 29.9253
rfoot -15.902 -6.67356
rtoes 1.85795
lfemur -12.9197 1.74687 -8.73282
ltibia 32.3206
lfoot -18.8589 10.9227
ltoes -13.3477
531
root 1.22424 17.8738 -7.04907 6.52485 -2.19724 -7.96219
lowerback -6.29184 0.486779 -2.40182
upperback -1.91801 0.714181 4.38022
thorax 1.45991 0.363979 5.95982
lowerneck -25.7234 -4.47841 -2.22474
upperneck 21.8849 -6.22896 2.93498
head 11.5565 -2.59791 0.380632
rclavicle -2.96772e-015 -2.64756e-014
rhumerus -28.4511 3.46875 -86.0944
rradius 34.8452
rwrist -12.4226
rhand -18.6293 9.75399
rfingers 7.12502
rthumb 7.66296 -20.0872
lclavicle -2.96772e-015 -2.64756e-014
lhumerus -26.9449 1.66207 89.3952
lradius 32.9052
lwrist 8.59945
lhand -5.31783 34.378
lfingers 7.12502
lthumb 20.488 63.317
rfemur -15.1179 -1.38978 26.0503
rtibia 29.9676
rfoot -15.9222 -6.64638
rtoes 2.60057
lfemur -13.0035 1.60557 -8.64234
ltibia 32.3005
lfoot -18.7769 10.9233
ltoes -13.5795
532
root 1.20175 17.8768 -7.05154 6.59857 -2.17205 -8.0173
lowerback -6.68935 0.532998 -2.40653
upperback -1.73728 0.771797 4.43667
thorax 1.86069 0.380028 6.03729
lowerneck -25.8386 -4.56305 -2.27276
upperneck 21.8494 -6.32621 2.94184
head 11.5688 -2.64337 0.37204
rclavicle -7.49244e-015 1.08586e-014
rhumerus -28.1303 3.51991 -86.101
rradius 34.8334
rwrist -12.0732
rhand -18.7468 9.97343
rfingers 7.12502
rthumb 7.54957 -19.8718
lclavicle -7.49244e-015 1.08586e-014
lhumerus -26.4246 1.5451 89.7279
lradius 32.8217
lwrist 8.46003
lhand -5.22686 34.2691
lfingers 7.12502
lthumb 20.5754 63.1987
rfemur -15.2229 -1.40277 26.1827
rtibia 30.0012
rfoot -15.9088 -6.52692
rtoes 3.4335
lfemur -13.073 1.52731 -8.50941
ltibia 32.2927
lfoot -18.8021 11.0369
ltoes -13.5843
533
root 1.18201 17.877 -7.05611 6.63822 -2.23096 -8.04129
lowerback -6.4186 0.577888 -2.2002
upperback -1.94955 0.825279 4.32513
thorax 1.48862 0.419641 5.79579
lowerneck -25.602 -4.59446 -2.27345
upperneck 22.0105 -6.43373 3.11653
head 11.5974 -2.66909 0.420878
rclavicle 1.89549e-014 1.55922e-015
rhumerus -28.411 3.59912 -86.4041
rradius 34.8465
rwrist -11.8039
rhand -18.7513 10.2393
rfingers 7.12502
rthumb 7.54524 -19.6061
lclavicle 1.89549e-014 1.55922e-015
lhumerus -26.5697 1.35497 89.752
lradius 32.8495
lwrist 8.35903
lhand -5.1004 34.1644
lfingers 7.12502
lthumb 20.6969 63.0808
rfemur -15.301 -1.34679 26.2711
rtibia 30.0237
rfoot -15.8743 -6.44444
rtoes 3.7703
lfemur -13.1045 1.55475 -8.4262
ltibia 32.2728
lfoot -18.7962 11.1353
ltoes -13.6829
534
root 1.15962 17.8741 -7.05901 6.54912 -2.24101 -7.95798
lowerback -6.1614 0.593465 -2.23057
upperback -2.03285 0.851073 4.25605
thorax 1.25685 0.439167 5.73559
lowerneck -25.4461 -4.59177 -2.30927
upperneck 22.0518 -6.45537 3.23478
head 11.5914 -2.6677 0.469095
rclavicle -1.05216e-016 8.97016e-015
rhumerus -28.5339 3.71556 -86.5832
rradius 34.8842
rwrist -11.7495
rhand -18.6383 10.2831
rfingers 7.12502
rthumb 7.65424 -19.5584
lclavicle -1.05216e-016 8.97016e-015
lhumerus -26.5732 1.10938 89.903
lradius 32.8644
lwrist 8.31077
lhand -5.14707 33.565
lfingers 7.12502
lthumb 20.6521 62.4863
rfemur -15.226 -1.41169 26.2508
rtibia 30.0281
rfoot -15.8993 -6.33764
rtoes 3.93466
lfemur -12.9992 1.50972 -8.4417
ltibia 32.2459
lfoot -18.671 11.2074
ltoes -14.3551
535
root 1.13478 17.8742 -7.05859 6.50165 -2.12829 -7.86651
lowerback -6.2199 0.543663 -2.44887
upperback -1.94146 0.794689 4.32497
thorax 1.38595 0.406596 5.93239
lowerneck -25.4318 -4.60165 -2.42716
upperneck 21.9503 -6.42454 3.25789
head 11.5542 -2.66277 0.503013
rclavicle -6.12015e-015 1.02141e-014
rhumerus -28.3187 3.85989 -86.5413
rradius 34.8511
rwrist -11.633
rhand -18.5095 10.2138
rfingers 7.12502
rthumb 7.77864 -19.6231
lclavicle -6.12015e-015 1.02141e-014
lhumerus -26.292 1.07402 90.1951
lradius 32.8643
lwrist 8.27942
lhand -5.30891 32.5239
lfingers 7.12502
lthumb 20.4966 61.462
rfemur -15.1784 -1.59414 26.2384
rtibia 30.0332
rfoot -15.9636 -6.20618
rtoes 4.57968
lfemur -12.9444 1.29651 -8.43537
ltibia 32.2092
lfoot -18.6851 11.1579
ltoes -13.8917
536
root 1.11027 17.8762 -7.05785 6.54314 -1.97674 -7.92756
lowerback -6.43907 0.487139 -2.48111
upperback -1.8216 0.717227 4.42303
thorax 1.63965 0.359474 6.05521
lowerneck -25.507 -4.65403 -2.51835
upperneck 21.9122 -6.46264 3.27213
head 11.5585 -2.6851 0.51521
rclavicle 7.62739e-015 -1.00138e-014
rhumerus -27.9418 3.92102 -86.4993
rradius 34.7011
rwrist -11.4262
rhand -18.3349 10.1867
rfingers 7.12502
rthumb 7.94716 -19.6439
lclavicle 7.62739e-015 -1.00138e-014
lhumerus -25.9054 1.09113 90.4335
lradius 32.7869
lwrist 8.21715
lhand -5.31386 31.81
lfingers 7.12502
lthumb 20.4918 60.7485
rfemur -15.2135 -1.66696 26.4116
rtibia 30.045
rfoot -15.9792 -6.26134
rtoes 4.97991
lfemur -13.0026 1.17709 -8.2574
ltibia 32.1629
lfoot -18.8384 10.9925
ltoes -12.6323
537
root 1.08734 17.8761 -7.05792 6.53951 -1.91474 -7.97126
lowerback -6.45794 0.484995 -2.43783
upperback -1.80564 0.71106 4.43298
thorax 1.66794 0.355465 6.04096
lowerneck -25.5305 -4.70694 -2.51441
upperneck 21.9605 -6.54874 3.30073
head 11.5852 -2.71831 0.50925
rclavicle -1.12778e-014 -7.47927e-015
rhumerus -27.8148 3.95679 -86.5697
rradius 34.5983
rwrist -11.2745
rhand -18.19 10.206
rfingers 7.12502
rthumb 8.08691 -19.6193
lclavicle -1.12778e-014 -7.47927e-015
lhumerus -25.767 0.73761 90.6486
lradius 32.7983
lwrist 8.25406
lhand -4.9863 32.5083
lfingers 7.12502
lthumb 20.8066 61.4127
rfemur -15.1965 -1.66687 26.5493
rtibia 30.0342
rfoot -15.9946 -6.31705
rtoes 4.99034
lfemur -13.0054 1.18537 -8.12605
ltibia 32.1325
lfoot -18.8292 10.983
ltoes -12.7133
538
root 1.06508 17.8744 -7.05897 6.51108 -1.95497 -7.94152
lowerback -6.35729 0.503062 -2.48364
upperback -1.86803 0.739629 4.42038
thorax 1.54323 0.373981 6.05328
lowerneck -25.4129 -4.71403 -2.54793
upperneck 22.0092 -6.57273 3.37613
head 11.5874 -2.72292 0.540123
rclavicle 7.39497e-015 -1.60394e-014
rhumerus -27.9052 4.00914 -86.6385
rradius 34.5593
rwrist -11.1696
rhand -18.0557 10.224
rfingers 7.12502
rthumb 8.21659 -19.5962
lclavicle 7.39497e-015 -1.60394e-014
lhumerus -25.8762 0.30301 90.866
lradius 32.999
lwrist 8.17587
lhand -4.74187 33.5208
lfingers 7.12502
lthumb 21.0414 62.3992
rfemur -15.1683 -1.68544 26.5906
rtibia 30.0134
rfoot -15.9542 -6.25218
rtoes 4.57879
lfemur -12.9614 1.19231 -8.07777
ltibia 32.1319
lfoot -18.7874 10.9928
ltoes -12.7477
539
root 1.04321 17.8752 -7.05847 6.57143 -1.98523 -8.02646
lowerback -6.43868 0.516325 -2.4068
upperback -1.89578 0.753073 4.43209
thorax 1.55917 0.380962 6.02374
lowerneck -25.2979 -4.72104 -2.56977
upperneck 22.0314 -6.59424 3.43254
head 11.5786 -2.7284 0.562667
rclavicle 1.95322e-014 -6.79595e-015
rhumerus -27.8928 4.02319 -86.7255
rradius 34.4581
rwrist -11.1042
rhand -18.0212 10.1911
rfingers 7.12502
rthumb 8.24991 -19.6278
lclavicle 1.95322e-014 -6.79595e-015
lhumerus -25.9297 0.0388525 90.9809
lradius 33.218
lwrist 7.86887
lhand -5.5881 32.359
lfingers 7.12502
lthumb 20.2283 61.3257
rfemur -15.2281 -1.69916 26.7704
rtibia 30.0044
rfoot -15.9208 -6.24896
rtoes 4.08485
lfemur -12.9981 1.18837 -7.89745
ltibia 32.1412
lfoot -18.7766 10.9905
ltoes -12.7128
